<svg width="1440" height="1024" viewBox="0 0 1440 1024" fill="none" xmlns="http://www.w3.org/2000/svg">
<g clip-path="url(#clip0)">
<rect width="1440" height="1024" fill="white"/>
<path d="M948.092 585.956L1040.85 678.716C1045.89 683.758 1045.89 691.932 1040.85 696.973L948.092 789.733C943.05 794.775 934.876 794.775 929.835 789.733L837.075 696.973C832.033 691.932 832.033 683.758 837.075 678.716L929.835 585.956C934.876 580.914 943.05 580.914 948.092 585.956Z" stroke="#FF7310" stroke-width="5"/>
<path d="M208.092 77.9557L300.852 170.716C305.894 175.758 305.894 183.932 300.852 188.973L208.092 281.733C203.05 286.775 194.876 286.775 189.835 281.733L97.0745 188.973C92.0329 183.932 92.0329 175.758 97.0745 170.716L189.835 77.9557C194.876 72.9141 203.05 72.9141 208.092 77.9557Z" stroke="#FF7310" stroke-width="5"/>
<path d="M1403.49 176.102L1496.25 268.862C1501.29 273.904 1501.29 282.078 1496.25 287.119L1403.49 379.879C1398.44 384.921 1390.27 384.921 1385.23 379.879L1292.47 287.119C1287.43 282.078 1287.43 273.904 1292.47 268.862L1385.23 176.102C1390.27 171.06 1398.44 171.06 1403.49 176.102Z" stroke="#FF7310" stroke-width="5"/>
<path d="M1101.23 722.433L1184.76 805.959C1189.8 811.001 1189.8 819.175 1184.76 824.216L1101.23 907.742C1096.19 912.784 1088.02 912.784 1082.97 907.742L999.449 824.216C994.408 819.175 994.408 811.001 999.449 805.959L1082.97 722.433C1088.02 717.392 1096.19 717.392 1101.23 722.433Z" stroke="#FF7310" stroke-width="5"/>
<path d="M361.232 214.433L444.758 297.959C449.8 303.001 449.8 311.175 444.758 316.216L361.232 399.742C356.191 404.784 348.016 404.784 342.975 399.742L259.449 316.216C254.408 311.175 254.408 303.001 259.449 297.959L342.975 214.433C348.016 209.392 356.191 209.392 361.232 214.433Z" stroke="#FF7310" stroke-width="5"/>
<path d="M819.223 714.817L911.984 807.577C917.025 812.619 917.025 820.793 911.984 825.835L819.223 918.595C814.182 923.637 806.008 923.637 800.966 918.595L708.206 825.835C703.164 820.793 703.164 812.619 708.206 807.577L800.966 714.817C806.008 709.776 814.182 709.776 819.223 714.817Z" stroke="#FF7310" stroke-width="5"/>
<path d="M79.2234 206.817L171.984 299.577C177.025 304.619 177.025 312.793 171.984 317.835L79.2234 410.595C74.1818 415.637 66.0077 415.637 60.9661 410.595L-31.7941 317.835C-36.8357 312.793 -36.8357 304.619 -31.7941 299.577L60.966 206.817C66.0077 201.776 74.1818 201.776 79.2234 206.817Z" stroke="#FF7310" stroke-width="5"/>
<path d="M1274.62 304.963L1367.38 397.724C1372.42 402.765 1372.42 410.939 1367.38 415.981L1274.62 508.741C1269.58 513.783 1261.4 513.783 1256.36 508.741L1163.6 415.981C1158.56 410.939 1158.56 402.765 1163.6 397.724L1256.36 304.963C1261.4 299.922 1269.58 299.922 1274.62 304.963Z" stroke="#FF7310" stroke-width="5"/>
<path d="M947.102 842.705L1039.86 935.465C1044.9 940.507 1044.9 948.681 1039.86 953.723L947.102 1046.48C942.061 1051.52 933.887 1051.52 928.845 1046.48L836.085 953.723C831.043 948.681 831.043 940.507 836.085 935.465L928.845 842.705C933.887 837.664 942.061 837.664 947.102 842.705Z" stroke="#FF7310" stroke-width="5"/>
<path d="M207.102 334.705L299.862 427.465C304.904 432.507 304.904 440.681 299.862 445.723L207.102 538.483C202.061 543.525 193.887 543.524 188.845 538.483L96.0848 445.723C91.0432 440.681 91.0432 432.507 96.0848 427.465L188.845 334.705C193.887 329.664 202.061 329.664 207.102 334.705Z" stroke="#FF7310" stroke-width="5"/>
<path d="M1402.5 432.851L1495.26 525.611C1500.3 530.653 1500.3 538.827 1495.26 543.869L1402.5 636.629C1397.45 641.671 1389.28 641.671 1384.24 636.629L1291.48 543.869C1286.44 538.827 1286.44 530.653 1291.48 525.612L1384.24 432.851C1389.28 427.81 1397.45 427.81 1402.5 432.851Z" stroke="#FF7310" stroke-width="5"/>
<path d="M1016.4 1060.75L1016.4 1060.76C999.039 1078.82 981.605 1096.82 964.098 1114.75C961.023 1117.88 957.283 1120.28 953.154 1121.77C949.024 1123.26 944.612 1123.8 940.246 1123.34C935.842 1122.86 931.603 1121.39 927.842 1119.05L927.836 1119.04L927.829 1119.04C927.064 1118.57 926.351 1118.04 925.545 1117.44C925.389 1117.32 925.23 1117.21 925.066 1117.08C924.444 1116.63 923.86 1116.07 923.235 1115.47C923.063 1115.3 922.888 1115.14 922.709 1114.97C922.703 1114.96 922.697 1114.96 922.691 1114.95L919.361 1111.69L919.36 1111.69L892.501 1085.42L892.489 1085.41L785.752 979.544L785.737 979.529L679.926 872.753L679.913 872.74L653.657 845.868L653.655 845.866L647.04 839.115L647.032 839.107L647.024 839.099C642.334 834.398 639.387 828.237 638.67 821.633C637.954 815.029 639.511 808.378 643.084 802.78C644.252 800.958 645.614 799.268 647.146 797.74C647.148 797.738 647.15 797.736 647.152 797.734L650.487 794.456L650.491 794.452L657.2 787.886L657.204 787.882L670.655 774.777L670.665 774.767L697.732 748.701L697.734 748.699C757.058 691.426 816.781 634.589 877.537 578.806C821.755 639.596 764.949 699.353 707.736 758.711L707.735 758.713L681.682 785.793L681.672 785.803L668.574 799.261L668.57 799.265L662.003 805.982L663.574 807.518L662.003 805.982L658.725 809.335L658.721 809.339C658.045 810.034 657.443 810.798 656.927 811.619L656.912 811.643L656.897 811.668C655.934 813.278 655.349 815.087 655.186 816.957C655.024 818.827 655.287 820.709 655.958 822.462C656.633 824.231 657.709 825.82 659.1 827.104L665.791 833.651L665.792 833.652L692.664 859.921L692.677 859.933L799.399 965.797L799.414 965.812L905.225 1072.6L905.238 1072.62L931.494 1099.49L931.494 1099.49L934.787 1102.86L934.82 1102.89L934.853 1102.92L935.721 1103.74L935.876 1103.89L936.055 1104.01C936.078 1104.03 936.109 1104.05 936.28 1104.19L936.29 1104.2C936.426 1104.31 936.682 1104.53 936.993 1104.72C938.535 1105.68 940.264 1106.3 942.065 1106.54C943.949 1106.8 945.866 1106.62 947.67 1106.02C949.475 1105.42 951.12 1104.42 952.479 1103.09L952.485 1103.08C970.331 1085.51 988.315 1068.07 1006.44 1050.76L1006.44 1050.76C1065.63 993.697 1125.21 937.002 1185.78 881.317C1130.12 941.935 1073.45 1001.54 1016.4 1060.75Z" stroke="#FF7310" stroke-width="5"/>
<path d="M276.402 552.753L276.4 552.755C259.039 570.821 241.605 588.817 224.098 606.745C221.023 609.88 217.283 612.281 213.154 613.769C209.024 615.258 204.612 615.797 200.246 615.345C195.842 614.859 191.603 613.39 187.842 611.047L187.836 611.043L187.829 611.039C187.064 610.569 186.351 610.039 185.545 609.44C185.389 609.324 185.23 609.206 185.066 609.085C184.444 608.625 183.86 608.066 183.235 607.468C183.063 607.303 182.888 607.136 182.709 606.967C182.703 606.962 182.697 606.956 182.691 606.95L179.361 603.69L179.36 603.69L152.501 577.42L152.489 577.408L45.752 471.544L45.7367 471.529L-60.0742 364.753L-60.0866 364.74L-86.3427 337.868L-86.3453 337.866L-92.9602 331.115L-92.9681 331.107L-92.976 331.099C-97.6662 326.398 -100.613 320.237 -101.33 313.633C-102.046 307.029 -100.489 300.378 -96.916 294.78C-95.7477 292.958 -94.3858 291.268 -92.8542 289.74C-92.8521 289.738 -92.8501 289.736 -92.8481 289.734L-89.5134 286.456L-89.5094 286.452L-82.7995 279.886L-82.7956 279.882L-69.3449 266.777L-69.3345 266.767L-42.2679 240.701L-42.2657 240.699C17.0584 183.426 76.7814 126.589 137.537 70.8058C81.7547 131.596 24.9487 191.353 -32.2635 250.711L-32.2652 250.713L-58.3178 277.793L-58.3279 277.803L-71.4262 291.261L-71.43 291.265L-77.997 297.982L-76.4259 299.518L-77.997 297.982L-81.2751 301.335L-81.2791 301.339C-81.9553 302.034 -82.5566 302.798 -83.0732 303.619L-83.0884 303.643L-83.1031 303.668C-84.0662 305.278 -84.6511 307.087 -84.8137 308.957C-84.9764 310.827 -84.7125 312.709 -84.0421 314.462C-83.3668 316.231 -82.2911 317.82 -80.8996 319.104L-74.2094 325.651L-74.2085 325.652L-47.3356 351.921L-47.3225 351.933L59.3991 457.797L59.4144 457.812L165.225 564.603L165.238 564.615L191.494 591.488L191.494 591.488L194.787 594.856L194.82 594.889L194.853 594.921L195.721 595.745L195.876 595.893L196.055 596.012C196.078 596.027 196.109 596.052 196.28 596.193L196.29 596.202C196.426 596.314 196.682 596.527 196.993 596.719C198.535 597.681 200.264 598.302 202.065 598.543C203.949 598.796 205.866 598.617 207.67 598.018C209.475 597.419 211.12 596.417 212.479 595.087L212.485 595.081C230.331 577.51 248.315 560.071 266.435 542.765L266.444 542.757C325.634 485.697 385.211 429.002 445.779 373.317C390.12 433.935 333.448 493.542 276.402 552.753Z" stroke="#FF7310" stroke-width="5"/>
<path d="M1640.74 471.771C1585.1 532.271 1528.44 591.764 1471.4 650.86L1471.4 650.862C1454.04 668.897 1436.61 686.863 1419.1 704.76C1416.03 707.889 1412.28 710.286 1408.15 711.772C1404.03 713.258 1399.62 713.796 1395.25 713.346C1390.85 712.861 1386.6 711.395 1382.84 709.054L1382.83 709.05L1382.83 709.046C1382.06 708.577 1381.35 708.048 1380.54 707.449C1380.39 707.334 1380.23 707.216 1380.06 707.095C1379.44 706.637 1378.86 706.078 1378.23 705.481C1378.06 705.317 1377.89 705.151 1377.71 704.982C1377.7 704.976 1377.7 704.971 1377.69 704.965L1374.36 701.71L1374.36 701.71L1347.5 675.485L1347.49 675.473L1240.75 569.79L1240.74 569.775L1134.92 463.181L1134.91 463.169L1108.66 436.343L1108.65 436.34L1102.04 429.601L1102.03 429.593L1102.02 429.585C1097.33 424.892 1094.39 418.743 1093.67 412.152C1092.95 405.563 1094.51 398.928 1098.08 393.341C1099.25 391.521 1100.61 389.833 1102.14 388.306C1102.15 388.304 1102.15 388.302 1102.15 388.3L1105.49 385.027L1105.49 385.024L1112.2 378.468L1112.2 378.465L1125.65 365.382L1125.66 365.372L1152.73 339.351L1152.73 339.349C1212.05 282.184 1271.76 225.454 1332.5 169.777C1276.73 230.449 1219.94 290.091 1162.74 349.334L1162.74 349.336L1136.68 376.37L1136.67 376.38L1123.58 389.815L1123.57 389.819L1117 396.524L1118.57 398.062L1117 396.524L1113.73 399.872L1113.72 399.876C1113.05 400.57 1112.44 401.333 1111.93 402.152L1111.91 402.177L1111.9 402.201C1110.93 403.81 1110.35 405.616 1110.19 407.484C1110.02 409.352 1110.29 411.233 1110.96 412.984C1111.63 414.751 1112.71 416.338 1114.1 417.62L1120.79 424.155L1120.79 424.156L1147.67 450.38L1147.68 450.393L1254.4 556.075L1254.42 556.091L1360.23 662.699L1360.24 662.711L1386.5 689.537L1386.5 689.538L1389.79 692.9L1389.82 692.933L1389.85 692.965L1390.72 693.787L1390.88 693.935L1391.06 694.054C1391.08 694.07 1391.11 694.094 1391.28 694.235C1391.41 694.344 1391.67 694.559 1391.99 694.755C1393.53 695.718 1395.26 696.34 1397.07 696.58C1398.95 696.833 1400.86 696.654 1402.67 696.057C1404.47 695.459 1406.12 694.458 1407.48 693.13L1407.48 693.125C1425.33 675.584 1443.31 658.175 1461.43 640.898L1461.44 640.89C1520.62 583.938 1580.19 527.35 1640.74 471.771Z" stroke="#FF7310" stroke-width="5"/>
<path d="M970.203 811.039C969.697 811.857 969.318 812.746 969.078 813.677C968.582 815.48 968.584 817.384 969.085 819.186L969.095 819.223L969.106 819.259C969.376 820.125 969.749 820.955 970.219 821.732C970.452 822.117 970.709 822.487 970.989 822.84L971.12 823.017L971.219 823.153L971.335 823.273L971.716 823.669L971.716 823.669L972.479 824.462L972.484 824.467L972.489 824.473L978.661 830.81L978.677 830.827L990.891 843.605C990.894 843.608 990.896 843.61 990.899 843.613C998.983 852.216 1007.01 860.844 1014.97 869.601C1025.34 881.158 1035.63 892.752 1045.63 904.631C1033.76 894.636 1022.17 884.322 1010.62 873.932C1001.84 866.016 993.257 857.963 984.667 849.867C984.665 849.865 984.663 849.863 984.661 849.862L971.875 837.638L971.866 837.629L965.526 831.445L965.52 831.44L965.515 831.435L964.747 830.695L963.788 829.721C963.788 829.721 963.787 829.72 963.787 829.72C963.102 829.024 962.473 828.275 961.904 827.481C960.788 825.822 959.913 824.012 959.305 822.106C958.159 818.294 958.238 814.217 959.531 810.451L959.534 810.443C960.164 808.587 961.098 806.849 962.297 805.299L962.307 805.286L962.317 805.273C962.911 804.484 963.563 803.74 964.267 803.047C964.268 803.046 964.27 803.044 964.271 803.043L965.89 801.466L965.906 801.451L978.677 789.228C978.679 789.226 978.682 789.223 978.684 789.221C987.283 781.129 995.906 773.102 1004.66 765.15C1016.12 754.777 1027.66 744.508 1039.46 734.546C1029.52 746.356 1019.25 757.889 1008.92 769.388C1004.98 773.766 995.921 783.457 987.819 792.079C983.773 796.384 979.975 800.414 977.187 803.369C975.794 804.846 974.653 806.054 973.861 806.892L972.946 807.861L972.706 808.114L972.645 808.178L972.63 808.194L972.63 808.195L972.626 808.199L972.625 808.2L971.164 809.735L971.109 809.793L971.057 809.855C970.744 810.229 970.459 810.624 970.203 811.039ZM970.203 811.039C970.203 811.039 970.204 811.038 970.204 811.037L972.33 812.354L970.202 811.041C970.202 811.04 970.203 811.04 970.203 811.039Z" stroke="#FF7310" stroke-width="5"/>
<path d="M230.203 303.039C229.697 303.857 229.318 304.746 229.078 305.677C228.582 307.48 228.584 309.384 229.085 311.186L229.095 311.223L229.106 311.259C229.376 312.125 229.749 312.955 230.219 313.732C230.452 314.117 230.709 314.487 230.989 314.84L231.12 315.017L231.219 315.153L231.335 315.273L231.716 315.669L231.716 315.669L232.479 316.462L232.484 316.467L232.489 316.473L238.661 322.81L238.677 322.827L250.891 335.605C250.894 335.608 250.896 335.61 250.899 335.613C258.983 344.216 267.005 352.844 274.966 361.601C285.341 373.158 295.635 384.752 305.628 396.631C293.756 386.636 282.166 376.322 270.619 365.932C261.845 358.016 253.257 349.963 244.667 341.867C244.665 341.865 244.663 341.863 244.661 341.862L231.875 329.638L231.866 329.629L225.526 323.445L225.52 323.44L225.515 323.435L224.747 322.695L223.788 321.721C223.788 321.721 223.787 321.72 223.787 321.72C223.102 321.024 222.473 320.275 221.904 319.481C220.788 317.822 219.913 316.012 219.305 314.106C218.159 310.294 218.238 306.217 219.531 302.451L219.534 302.443C220.164 300.587 221.098 298.849 222.297 297.299L222.307 297.286L222.317 297.273C222.911 296.484 223.563 295.74 224.267 295.047C224.268 295.046 224.27 295.044 224.271 295.043L225.89 293.466L225.906 293.451L238.677 281.228C238.679 281.226 238.682 281.223 238.684 281.221C247.283 273.129 255.906 265.102 264.657 257.15C276.124 246.777 287.661 236.508 299.462 226.546C289.516 238.356 279.254 249.889 268.921 261.388C264.984 265.766 255.921 275.457 247.819 284.079C243.773 288.384 239.975 292.414 237.187 295.369C235.794 296.846 234.653 298.054 233.861 298.892L232.946 299.861L232.706 300.114L232.645 300.178L232.63 300.194L232.63 300.195L232.626 300.199L232.625 300.2L231.164 301.735L231.109 301.793L231.057 301.855C230.744 302.229 230.459 302.624 230.203 303.039ZM230.203 303.039C230.203 303.039 230.204 303.038 230.204 303.037L232.33 304.354L230.202 303.041C230.202 303.04 230.203 303.04 230.203 303.039Z" stroke="#FF7310" stroke-width="5"/>
<path d="M1426.33 399.727L1426.27 399.785L1426.22 399.846C1425.91 400.22 1425.62 400.615 1425.36 401.03C1424.85 401.848 1424.47 402.738 1424.22 403.671C1423.72 405.478 1423.73 407.386 1424.23 409.192L1424.24 409.229L1424.25 409.265C1424.53 410.133 1424.9 410.964 1425.38 411.74C1425.61 412.126 1425.87 412.496 1426.15 412.849L1426.29 413.026L1426.39 413.161L1426.5 413.282L1426.89 413.678L1426.89 413.678L1427.66 414.47L1427.66 414.476L1427.67 414.481L1433.9 420.818L1433.91 420.835L1446.24 433.613C1446.24 433.616 1446.25 433.619 1446.25 433.621C1454.41 442.224 1462.51 450.853 1470.54 459.61C1481.04 471.194 1491.45 482.816 1501.56 494.725C1489.54 484.699 1477.8 474.351 1466.11 463.927C1457.25 456.01 1448.58 447.957 1439.91 439.86C1439.91 439.858 1439.91 439.856 1439.9 439.854L1427 427.63L1426.99 427.621L1420.59 421.437L1420.58 421.432L1420.58 421.427L1419.8 420.686L1418.84 419.713C1418.14 419.016 1417.51 418.267 1416.93 417.472C1415.81 415.813 1414.92 414.004 1414.31 412.1C1413.16 408.291 1413.24 404.22 1414.54 400.458L1414.54 400.45C1415.18 398.596 1416.12 396.858 1417.33 395.307L1417.34 395.295L1417.35 395.282C1417.95 394.492 1418.61 393.748 1419.32 393.055C1419.32 393.053 1419.32 393.052 1419.32 393.051L1420.96 391.474L1420.97 391.459L1433.86 379.236C1433.87 379.234 1433.87 379.231 1433.87 379.229C1442.55 371.137 1451.25 363.109 1460.09 355.157C1471.7 344.749 1483.39 334.445 1495.34 324.451C1485.28 336.291 1474.9 347.853 1464.44 359.38C1460.47 363.757 1451.32 373.449 1443.14 382.07C1439.06 386.376 1435.22 390.406 1432.41 393.36C1431 394.837 1429.85 396.045 1429.05 396.884L1428.13 397.852L1427.89 398.105L1427.83 398.17L1427.81 398.186L1427.81 398.186L1427.81 398.19L1427.81 398.191L1426.33 399.727Z" stroke="#FF7310" stroke-width="5"/>
</g>
<defs>
<clipPath id="clip0">
<rect width="1440" height="1024" fill="white"/>
</clipPath>
</defs>
</svg>
