<svg width="1440" height="702" viewBox="0 0 1440 702" fill="none" xmlns="http://www.w3.org/2000/svg">
<path d="M338.632 178.982L230.585 70.9352C223.576 63.9255 212.211 63.9255 205.201 70.9352L97.1537 178.982C90.144 185.992 90.144 197.357 97.1537 204.367L205.201 312.414C212.211 319.424 223.576 319.424 230.585 312.414L338.632 204.367C345.642 197.357 345.642 185.992 338.632 178.982Z" fill="#01600C"/>
<path d="M1321.19 157.584L1213.14 49.5367C1206.13 42.527 1194.76 42.527 1187.75 49.5367L1079.71 157.584C1072.7 164.594 1072.7 175.959 1079.71 182.968L1187.75 291.015C1194.76 298.025 1206.13 298.025 1213.14 291.015L1321.19 182.968C1328.2 175.959 1328.2 164.594 1321.19 157.584Z" fill="#01600C"/>
<path d="M506.252 327.196L408.961 229.905C401.952 222.895 390.587 222.895 383.577 229.905L286.286 327.196C279.276 334.205 279.276 345.57 286.286 352.58L383.577 449.871C390.587 456.881 401.952 456.881 408.961 449.871L506.252 352.58C513.262 345.57 513.262 334.205 506.252 327.196Z" fill="#01600C"/>
<path d="M1488.81 305.797L1391.51 208.506C1384.51 201.496 1373.14 201.496 1366.13 208.506L1268.84 305.797C1261.83 312.807 1261.83 324.172 1268.84 331.181L1366.13 428.472C1373.14 435.482 1384.51 435.482 1391.51 428.472L1488.81 331.181C1495.82 324.172 1495.82 312.807 1488.81 305.797Z" fill="#01600C"/>
<path d="M188.526 329.081L80.4793 221.033C73.4696 214.024 62.1046 214.024 55.0949 221.033L-52.9523 329.081C-59.962 336.09 -59.9619 347.455 -52.9522 354.465L55.0949 462.512C62.1046 469.522 73.4696 469.522 80.4793 462.512L188.526 354.465C195.536 347.455 195.536 336.09 188.526 329.081Z" fill="#01600C"/>
<path d="M1171.08 307.682L1063.03 199.635C1056.02 192.625 1044.66 192.625 1037.65 199.635L929.601 307.682C922.592 314.692 922.592 326.057 929.601 333.066L1037.65 441.114C1044.66 448.123 1056.02 448.123 1063.03 441.114L1171.08 333.066C1178.09 326.057 1178.09 314.692 1171.08 307.682Z" fill="#01600C"/>
<path d="M337.478 478.045L229.43 369.997C222.421 362.988 211.056 362.988 204.046 369.998L95.9989 478.045C88.9892 485.054 88.9892 496.419 95.9989 503.429L204.046 611.476C211.056 618.486 222.421 618.486 229.43 611.476L337.478 503.429C344.487 496.419 344.487 485.054 337.478 478.045Z" fill="#01600C"/>
<path d="M1320.03 456.646L1211.98 348.599C1204.97 341.589 1193.61 341.589 1186.6 348.599L1078.55 456.646C1071.54 463.656 1071.54 475.021 1078.55 482.031L1186.6 590.078C1193.61 597.087 1204.97 597.088 1211.98 590.078L1320.03 482.031C1327.04 475.021 1327.04 463.656 1320.03 456.646Z" fill="#01600C"/>
<path d="M549 372.641C470.734 459.341 390.485 544.054 309.603 628.065C289.403 649.1 269.117 670.056 248.745 690.932C244.862 694.895 240.137 697.931 234.92 699.813C229.704 701.695 224.131 702.375 218.615 701.804C213.054 701.191 207.702 699.337 202.952 696.376C201.755 695.64 200.644 694.784 199.532 693.962C198.421 693.14 197.36 692.062 196.505 691.257L192.59 687.422L161.331 656.827L37.1356 533.559L-85.9827 409.228L-116.54 377.932L-124.235 370.073C-130.158 364.132 -133.88 356.345 -134.785 347.999C-135.69 339.653 -133.723 331.248 -129.211 324.173C-127.736 321.87 -126.016 319.735 -124.081 317.804L-120.182 313.969L-112.368 306.316L-96.7043 291.044L-65.2065 260.689C18.7021 179.623 103.312 99.2928 189.939 21C111.691 107.733 31.4585 192.446 -49.4576 276.458L-79.7755 307.994L-95.0285 323.676L-102.672 331.5L-106.485 335.404C-107.13 336.067 -107.703 336.796 -108.195 337.578C-109.09 339.075 -109.633 340.756 -109.784 342.494C-109.935 344.232 -109.69 345.982 -109.067 347.611C-108.437 349.264 -107.43 350.748 -106.126 351.943L-98.3116 359.596L-67.0362 390.19L57.1423 513.459L180.261 637.806L210.818 669.103L214.648 673.024L215.657 673.982C216.016 674.222 216.307 674.53 216.666 674.753C218.111 675.656 219.732 676.239 221.42 676.465C223.174 676.701 224.959 676.534 226.639 675.977C228.319 675.419 229.85 674.485 231.115 673.246C251.886 652.781 272.816 632.47 293.906 612.314C377.831 531.35 462.441 451.003 549 372.641Z" fill="#01600C"/>
<path d="M1532 351.125C1453.73 437.697 1373.49 522.286 1292.6 606.173C1272.4 627.178 1252.12 648.103 1231.75 668.948C1227.86 672.905 1223.14 675.937 1217.92 677.816C1212.7 679.695 1207.13 680.375 1201.62 679.804C1196.05 679.193 1190.7 677.341 1185.95 674.385C1184.76 673.649 1183.64 672.795 1182.53 671.974C1181.42 671.153 1180.36 670.076 1179.51 669.273L1175.59 665.444L1144.33 634.894L1020.14 511.806L897.017 387.658L866.46 356.408L858.765 348.561C852.842 342.628 849.12 334.853 848.215 326.519C847.31 318.186 849.277 309.793 853.789 302.728C855.264 300.429 856.984 298.296 858.919 296.368L862.818 292.539L870.632 284.897L886.296 269.648L917.794 239.337C1001.7 158.39 1086.31 78.1779 1172.94 0C1094.69 86.606 1014.46 171.195 933.542 255.082L903.225 286.572L887.972 302.232L880.328 310.045L876.515 313.942C875.87 314.604 875.297 315.332 874.805 316.113C873.91 317.608 873.367 319.287 873.216 321.022C873.065 322.758 873.31 324.505 873.933 326.131C874.563 327.782 875.57 329.263 876.874 330.457L884.688 338.098L915.964 368.648L1040.14 491.736L1163.26 615.901L1193.82 647.151L1197.65 651.066L1198.66 652.024C1199.02 652.263 1199.31 652.571 1199.67 652.793C1201.11 653.694 1202.73 654.277 1204.42 654.502C1206.17 654.739 1207.96 654.572 1209.64 654.015C1211.32 653.458 1212.85 652.526 1214.12 651.289C1234.89 630.854 1255.82 610.573 1276.91 590.445C1360.83 509.601 1445.44 429.371 1532 351.125Z" fill="#01600C"/>
<path d="M355.959 225C338.828 246.813 320.48 267.496 301.995 288.026C292.744 298.291 259.544 333.328 259.544 333.328L257.83 335.125C257.554 335.454 257.303 335.803 257.077 336.168C256.636 336.878 256.307 337.651 256.1 338.461C255.655 340.062 255.655 341.753 256.1 343.354C256.345 344.139 256.684 344.892 257.111 345.595C257.327 345.953 257.568 346.296 257.83 346.621L258.019 346.878L258.464 347.34L259.355 348.264L266.585 355.672L280.889 370.607C290.346 380.649 299.734 390.726 309.053 400.957C327.521 421.486 345.817 442.17 363 464C341.14 446.892 320.411 428.586 299.854 410.127C289.575 400.871 279.519 391.462 269.48 382.018L254.507 367.733L247.089 360.513L246.164 359.624L245.016 358.46C244.099 357.53 243.257 356.529 242.498 355.466C241.023 353.287 239.869 350.907 239.072 348.401C237.549 343.365 237.651 337.978 239.363 333.003C240.203 330.535 241.448 328.222 243.046 326.16C243.829 325.123 244.688 324.145 245.616 323.235L247.534 321.37L262.49 307.085C272.546 297.641 282.637 288.266 292.881 278.976C313.405 260.448 334.168 242.159 355.959 225Z" fill="#01600C"/>
<path d="M1337.96 204C1320.83 225.813 1302.48 246.496 1284 267.026C1274.74 277.291 1241.54 312.328 1241.54 312.328L1239.83 314.125C1239.55 314.454 1239.3 314.803 1239.08 315.168C1238.64 315.878 1238.31 316.651 1238.1 317.461C1237.65 319.062 1237.65 320.753 1238.1 322.354C1238.34 323.139 1238.68 323.892 1239.11 324.595C1239.33 324.953 1239.57 325.296 1239.83 325.621L1240.02 325.878L1240.46 326.34L1241.36 327.264L1248.58 334.672L1262.89 349.607C1272.35 359.649 1281.73 369.726 1291.05 379.957C1309.52 400.486 1327.82 421.17 1345 443C1323.14 425.892 1302.41 407.586 1281.85 389.127C1271.57 379.871 1261.52 370.462 1251.48 361.018L1236.51 346.733L1229.09 339.513L1228.16 338.624L1227.02 337.46C1226.1 336.53 1225.26 335.529 1224.5 334.466C1223.02 332.287 1221.87 329.907 1221.07 327.401C1219.55 322.365 1219.65 316.978 1221.36 312.003C1222.2 309.535 1223.45 307.222 1225.05 305.16C1225.83 304.123 1226.69 303.145 1227.62 302.235L1229.53 300.37L1244.49 286.085C1254.55 276.641 1264.64 267.266 1274.88 257.976C1295.4 239.448 1316.17 221.159 1337.96 204Z" fill="#01600C"/>
</svg>
