<svg width="426" height="190" viewBox="0 0 426 190" fill="none" xmlns="http://www.w3.org/2000/svg">
<path d="M145.917 94.2993L131.931 80.3127C130.747 79.1294 128.829 79.1294 127.646 80.3127L113.659 94.2993C112.476 95.4826 112.476 97.401 113.659 98.5843L127.646 112.571C128.829 113.754 130.747 113.754 131.931 112.571L145.917 98.5843C147.1 97.401 147.1 95.4826 145.917 94.2993Z" fill="#FF7310"/>
<path d="M168.877 114.598L156.361 102.082C155.178 100.899 153.26 100.899 152.076 102.082L139.56 114.598C138.377 115.781 138.377 117.7 139.56 118.883L152.076 131.399C153.26 132.582 155.178 132.582 156.361 131.399L168.877 118.883C170.06 117.7 170.06 115.781 168.877 114.598Z" fill="#FF7310"/>
<path d="M125.358 114.856L111.371 100.87C110.188 99.6865 108.269 99.6865 107.086 100.87L93.0994 114.856C91.9161 116.04 91.9161 117.958 93.0994 119.141L107.086 133.128C108.269 134.311 110.188 134.311 111.371 133.128L125.358 119.141C126.541 117.958 126.541 116.04 125.358 114.856Z" fill="#FF7310"/>
<path d="M145.758 135.256L131.771 121.27C130.588 120.086 128.67 120.086 127.486 121.27L113.5 135.256C112.316 136.44 112.316 138.358 113.5 139.541L127.486 153.528C128.67 154.711 130.588 154.711 131.771 153.528L145.758 139.541C146.941 138.358 146.941 136.44 145.758 135.256Z" fill="#FF7310"/>
<path d="M175.2 121.22C164.47 133.09 153.47 144.68 142.38 156.22C139.61 159.1 136.84 161.98 134.04 164.83C133.507 165.372 132.86 165.787 132.145 166.045C131.43 166.303 130.666 166.397 129.91 166.32C129.147 166.23 128.414 165.974 127.76 165.57C127.6 165.469 127.447 165.359 127.3 165.24L126.88 164.87L126.34 164.35L122.06 160.16L105.06 143.29L88.1901 126.29L84.0001 122L82.9501 120.93C82.4162 120.39 82.0096 119.737 81.7601 119.02C81.5047 118.3 81.4178 117.53 81.5062 116.771C81.5946 116.011 81.856 115.282 82.2701 114.64C82.4759 114.326 82.7139 114.035 82.9801 113.77L83.5101 113.25L84.5801 112.2L86.7301 110.11L91.0501 105.96C102.54 94.86 114.14 83.86 126.05 73.14C115.33 85.01 104.33 96.61 93.2401 108.14L89.0801 112.45L86.9901 114.6L85.9901 115.67L85.4701 116.21C85.3875 116.299 85.3138 116.396 85.2501 116.5C85.1252 116.705 85.0494 116.937 85.0286 117.176C85.0078 117.415 85.0425 117.656 85.1301 117.88C85.2171 118.104 85.3539 118.306 85.5301 118.47L86.6001 119.52L90.8301 123.62L107.83 140.5L124.7 157.5L128.89 161.78L129.41 162.32L129.55 162.45L129.69 162.55C129.885 162.681 130.107 162.766 130.34 162.8C130.581 162.833 130.826 162.811 131.056 162.734C131.287 162.658 131.497 162.53 131.67 162.36C134.52 159.56 137.4 156.79 140.28 154.02C151.74 142.95 163.33 131.95 175.2 121.22Z" fill="#FF7310"/>
<path d="M148.65 101.04C146.3 104.04 143.79 106.86 141.27 109.67C140 111.08 135.46 115.88 135.46 115.88L135.22 116.13L135.12 116.27C135.058 116.365 135.014 116.47 134.99 116.58C134.925 116.799 134.925 117.031 134.99 117.25C135.022 117.359 135.069 117.464 135.13 117.56C135.157 117.611 135.191 117.658 135.23 117.7V117.7L135.29 117.76L135.42 117.88L136.42 118.88L138.42 120.93C139.72 122.3 141.01 123.68 142.27 125.08C144.8 127.89 147.27 130.73 149.65 133.72C146.65 131.37 143.83 128.87 141.02 126.34C139.61 125.07 138.23 123.78 136.86 122.49L134.81 120.49L133.81 119.49L133.68 119.37L133.52 119.21C133.396 119.082 133.283 118.945 133.18 118.8C132.975 118.491 132.817 118.154 132.71 117.8C132.49 117.114 132.49 116.376 132.71 115.69C132.827 115.351 133 115.033 133.22 114.75C133.32 114.603 133.437 114.469 133.57 114.35L133.83 114.09L135.83 112.09C137.2 110.8 138.58 109.51 139.98 108.24C142.83 105.9 145.66 103.39 148.65 101.04Z" fill="#FF7310"/>
<path d="M405.09 127.12C410.61 126.993 414.52 126.027 416.82 124.22C419.13 122.39 420.29 118.93 420.29 113.76V99.3C420.29 94.14 419.133 90.64 416.82 88.8C414.52 86.97 410.16 86.04 403.7 86.04H349.45V136.62H345.83H328.33L300.71 85.92H282.77L291.49 101.92L295.29 109L300.93 119.46L301.36 120.27H301.43L317.43 150.14H362.83C363.689 150.012 364.489 149.623 365.121 149.026C365.752 148.428 366.184 147.651 366.36 146.8C366.412 146.52 366.439 146.235 366.44 145.95V134.03C366.65 127.86 372.75 127.19 374.26 127.12H385.14L404.83 150.22H425.64L405.09 127.12ZM403.33 112.62C403.393 113.145 403.245 113.673 402.92 114.09C402.435 114.387 401.864 114.513 401.299 114.45H366.5V104.61C366.92 99.05 372.67 98.61 374.5 98.61H401.35C401.909 98.5532 402.473 98.6646 402.97 98.93C403.24 99.14 403.38 99.61 403.38 100.35L403.33 112.62Z" fill="white"/>
<path d="M259.67 189.24H245.57V174.86H248.91V186.53H259.67V189.24Z" fill="white"/>
<path d="M277.47 189.24H274.13V174.86H277.47V189.24Z" fill="white"/>
<path d="M312.83 189.24H309.49V181.96C309.49 180.96 309.49 179.84 309.61 178.74C309.141 179.479 308.616 180.181 308.04 180.84L303.28 187.48L302.77 187.56L298 180.95C297.477 180.242 296.996 179.504 296.56 178.74V178.74C296.64 179.65 296.68 180.74 296.68 181.94V189.24H293.34V174.86H297.1L301.26 180.86L303.14 183.57L305.03 180.82L309.18 174.82H312.83V189.24Z" fill="white"/>
<path d="M332.01 189.24H328.67V174.86H332.01V189.24Z" fill="white"/>
<path d="M356.34 189.24H353V177.44H346.42V174.86H362.94V177.44H356.34V189.24Z" fill="white"/>
<path d="M392.47 189.24H377.35V174.86H392.35V177.44H380.69V180.49H388.51V183.05H380.69V186.53H392.47V189.24Z" fill="white"/>
<path d="M420.33 189.24H407.83V174.86H420.33C421.322 174.749 422.321 174.994 423.15 175.55C423.75 176.322 424.019 177.3 423.9 178.27V185.83C424.021 186.803 423.751 187.785 423.15 188.56C422.318 189.107 421.321 189.348 420.33 189.24V189.24ZM420.56 186.12V177.85C420.568 177.789 420.562 177.726 420.543 177.668C420.524 177.609 420.492 177.555 420.45 177.51C420.328 177.456 420.194 177.432 420.06 177.44H411.15V186.53H420.06C420.195 186.546 420.332 186.518 420.45 186.45C420.493 186.407 420.525 186.355 420.544 186.298C420.563 186.241 420.569 186.18 420.56 186.12V186.12Z" fill="white"/>
<path d="M18.0305 39.35L1.03047 24.41V64.28H14.0305C15.117 64.2774 16.1584 63.8445 16.9267 63.0762C17.695 62.3079 18.1278 61.2666 18.1305 60.18V41.18C18.0405 40.54 18.0405 39.94 18.0305 39.35ZM63.2005 0.0400085V23.04C63.2005 30.78 63.4138 37.5033 63.8405 43.21H63.4905C60.1171 39.99 56.4071 36.73 52.3605 33.43L14.3605 0.0100098H0.980469V6.35001L17.7105 21.02L18.5705 21.81C22.7438 25.6167 26.4971 28.8867 29.8305 31.62L30.5005 32.18L67.0705 64.24H80.2505V0.0400085H63.2005Z" fill="white"/>
<path d="M254.17 57.36L238.1 45.62L217.83 30.92L238.07 15.52L252.83 4.31003L258.44 0.0400391H234.54L217.63 13.04L202.83 24.41V0.0400391H185.5V38.12H202.83V38.05L219.95 50.73L238.22 64.28H263.66L254.17 57.36Z" fill="white"/>
<path d="M424.68 15.71V48.62C424.68 54.88 423.514 59.0533 421.18 61.14C418.847 63.2267 414.364 64.2734 407.73 64.28H270.73V0.0400391H334.73L328.83 10.74C328.473 11.3782 327.952 11.9099 327.321 12.2806C326.69 12.6513 325.972 12.8479 325.24 12.85H296.24C294.94 12.91 288.01 13.53 288 19.03C288 19.26 288 19.46 288 19.66V24.83H321L314.29 36.9L314.08 37.28H296.46C296.46 37.28 288.02 37.41 288.01 43.46C288.01 43.7 288.01 43.91 288.01 44.1V50.75H351.611H405.33C405.909 50.8059 406.49 50.6763 406.99 50.38C407.162 50.199 407.291 49.9823 407.369 49.7454C407.447 49.5086 407.471 49.2575 407.44 49.01V14.78C407.477 14.5232 407.455 14.2615 407.377 14.0141C407.299 13.7666 407.167 13.5398 406.99 13.35C406.475 13.0985 405.902 12.9914 405.33 13.04H376.76C375.24 13.14 369.02 13.83 366.64 18.21L357.421 34.79C357.066 35.4288 356.547 35.9612 355.918 36.3322C355.288 36.7032 354.571 36.8992 353.84 36.9H338.69L351.6 13.68L351.95 13.04L359.18 0.0400391H407.73C414.364 0.0400391 418.847 1.10003 421.18 3.22003C423.514 5.34003 424.68 9.50336 424.68 15.71Z" fill="white"/>
<path d="M203.201 136.69V86.04H185.891V150.23H228.281C229.038 150.229 229.781 150.025 230.434 149.64C231.086 149.255 231.623 148.703 231.991 148.04L238.301 136.69H203.201Z" fill="white"/>
<path d="M71.83 124.53V136.05C71.83 141.63 70.64 145.4 68.25 147.32C65.86 149.24 61.36 150.22 54.8 150.22H0V136.88H52.53C53.0907 136.931 53.6541 136.817 54.15 136.55C54.43 136.33 54.56 135.86 54.56 135.12V124.99C54.5907 124.746 54.5701 124.498 54.4995 124.262C54.4289 124.026 54.3099 123.807 54.15 123.62C53.6689 123.313 53.0965 123.183 52.53 123.25H17.08C10.4133 123.25 5.91666 122.25 3.59 120.25C1.26333 118.25 0.0800085 114.507 0.0400085 109.02V100.02C0.0400085 94.61 1.25001 90.94 3.68001 88.96C6.11001 86.98 10.57 86.02 17.08 86.02H68.66V94.29C68.66 95.4172 68.2122 96.4982 67.4152 97.2952C66.6182 98.0922 65.5372 98.54 64.41 98.54H25.83C24.38 98.54 17.04 98.86 17.04 105.26V109.04C17.0028 109.298 17.0249 109.56 17.1046 109.808C17.1843 110.056 17.3195 110.282 17.5 110.47C18.0105 110.725 18.5811 110.836 19.15 110.79H54.83C61.39 110.79 65.8733 111.743 68.28 113.65C70.68 115.62 71.83 119.2 71.83 124.53Z" fill="white"/>
<path d="M114.65 16.3L101.42 39.97L87.8301 64.25H102.46C103.72 64.248 104.956 63.9024 106.034 63.2504C107.113 62.5985 107.993 61.6649 108.58 60.55L119.17 40.38L120.45 38.05L122.45 34.46L123.45 32.66L114.65 16.3Z" fill="white"/>
<path d="M202.831 50.73V64.28H182.251V64.27H170.091V64.28H161.321V64.25H158.531L151.291 50.75L144.061 37.29L142.511 34.36H142.441L137.311 24.83L132.571 16.03L132.531 16.04L123.891 0H141.751L141.771 0.0400085L148.741 12.85L169.381 50.75H182.251V50.73H202.831Z" fill="white"/>
<path d="M273.6 102.25L246.83 150.17H261.44C262.702 150.172 263.941 149.828 265.022 149.176C266.102 148.524 266.984 147.588 267.57 146.47L278.16 126.3H278.11L279.39 123.98L281.39 120.39L282.39 118.54L273.6 102.25Z" fill="white"/>
<path d="M349.45 150.17V150.22H362.25C362.464 150.219 362.678 150.202 362.89 150.17H349.45Z" fill="white"/>
<path d="M335.69 150.17H333.67V150.16H335.68L335.69 150.17Z" fill="white"/>
</svg>
