<svg width="434" height="194" viewBox="0 0 434 194" fill="none" xmlns="http://www.w3.org/2000/svg">
<path d="M149.267 96.8992L134.623 82.2551C133.541 81.1733 131.787 81.1733 130.705 82.2551L116.061 96.8992C114.979 97.981 114.979 99.7349 116.061 100.817L130.705 115.461C131.787 116.543 133.541 116.543 134.623 115.461L149.267 100.817C150.349 99.7349 150.349 97.981 149.267 96.8992Z" fill="#FF7310"/>
<path d="M172.571 117.509L159.425 104.364C158.344 103.282 156.59 103.282 155.508 104.364L142.363 117.509C141.281 118.591 141.281 120.345 142.363 121.426L155.508 134.571C156.59 135.653 158.344 135.653 159.425 134.571L172.571 121.426C173.652 120.345 173.652 118.591 172.571 117.509Z" fill="#FF7310"/>
<path d="M128.388 117.779L113.744 103.135C112.662 102.053 110.908 102.053 109.826 103.135L95.1823 117.779C94.1005 118.861 94.1005 120.615 95.1823 121.697L109.826 136.341C110.908 137.423 112.662 137.423 113.744 136.341L128.388 121.697C129.47 120.615 129.47 118.861 128.388 117.779Z" fill="#FF7310"/>
<path d="M149.099 138.502L134.455 123.858C133.373 122.776 131.619 122.776 130.537 123.858L115.893 138.502C114.811 139.583 114.811 141.337 115.893 142.419L130.537 157.063C131.619 158.145 133.373 158.145 134.455 157.063L149.099 142.419C150.181 141.337 150.181 139.583 149.099 138.502Z" fill="#FF7310"/>
<path d="M178.781 124C167.891 136.05 156.721 147.82 145.451 159.5C142.641 162.43 139.831 165.35 136.981 168.24C136.164 169.073 135.088 169.603 133.929 169.741C132.771 169.88 131.6 169.618 130.611 169C130.444 168.896 130.284 168.782 130.131 168.66L129.711 168.29L129.161 167.76L124.811 163.5L107.531 146.37L90.3905 129.09L86.1405 124.74L85.0805 123.65C84.254 122.826 83.734 121.744 83.6067 120.583C83.4794 119.423 83.7524 118.254 84.3805 117.27C84.5876 116.948 84.829 116.65 85.1005 116.38L85.6505 115.85L86.7305 114.79L88.9105 112.66L93.3005 108.44C105.001 97.19 116.751 86 128.811 75.14C117.921 87.19 106.751 98.97 95.4805 110.65L91.2605 115L89.1405 117.18L88.0705 118.27L87.5405 118.81C87.4576 118.905 87.3808 119.005 87.3105 119.11C87.1214 119.426 87.047 119.797 87.0998 120.162C87.1526 120.526 87.3295 120.861 87.6005 121.11L88.6905 122.17L93.0405 126.43L110.331 143.56L127.461 160.85L131.711 165.2L132.241 165.74L132.381 165.88L132.531 165.98C132.728 166.114 132.954 166.2 133.191 166.23C133.434 166.265 133.683 166.243 133.917 166.167C134.151 166.091 134.364 165.962 134.541 165.79C137.431 162.94 140.351 160.13 143.271 157.32C155.001 146.08 166.731 134.91 178.781 124Z" fill="#FF7310"/>
<path d="M151.82 103.52C149.43 106.52 146.89 109.43 144.32 112.29C143.03 113.71 138.42 118.59 138.42 118.59L138.18 118.84C138.18 118.89 138.11 118.93 138.08 118.99C138.019 119.086 137.972 119.191 137.94 119.3C137.88 119.526 137.88 119.764 137.94 119.99C137.974 120.099 138.021 120.203 138.08 120.3C138.11 120.349 138.144 120.396 138.18 120.44V120.44L138.24 120.5L138.37 120.63L139.37 121.63L141.37 123.71C142.69 125.1 143.99 126.5 145.28 127.93C147.85 130.78 150.39 133.66 152.78 136.7C149.78 134.31 146.86 131.77 144.01 129.21C142.58 127.92 141.18 126.61 139.78 125.29L137.71 123.29L136.71 122.29L136.59 122.17L136.43 122.01C136.3 121.882 136.183 121.741 136.08 121.59C135.764 121.141 135.558 120.623 135.482 120.078C135.405 119.534 135.46 118.979 135.64 118.46C135.757 118.1 135.933 117.762 136.16 117.46C136.264 117.316 136.381 117.182 136.51 117.06L136.78 116.8L138.86 114.8C140.25 113.48 141.66 112.17 143.08 110.89C145.9 108.45 148.78 105.91 151.82 103.52Z" fill="#FF7310"/>
<path d="M412.26 130C417.86 129.88 421.83 128.89 424.18 127.06C426.53 125.23 427.69 121.69 427.69 116.43V101.75C427.69 96.5167 426.52 92.9634 424.18 91.09C421.83 89.23 417.41 88.29 410.85 88.29H355.75V139.66H352.08H334.3L306.3 88.16H288L296.86 104.43L300.73 111.63L306.45 122.25L306.9 123.07H307L323.26 153.41H369.38C370.262 153.285 371.083 152.89 371.731 152.28C372.38 151.669 372.823 150.873 373 150C373.052 149.713 373.079 149.422 373.08 149.13V137C373.29 130.73 379.49 130.05 381.02 130H392.02L412 153.47H433.14L412.26 130ZM410.47 115.23C410.502 115.494 410.482 115.761 410.41 116.017C410.338 116.273 410.215 116.512 410.05 116.72C409.56 117.023 408.983 117.153 408.41 117.09H373.07V107.09C373.49 101.44 379.33 101.01 381.14 101.01H408.41C408.977 100.954 409.549 101.068 410.05 101.34C410.33 101.553 410.47 102.033 410.47 102.78V115.23Z" fill="#FF7310"/>
<path d="M264.57 193.09H250.25V178.5H253.64V190.35H264.57V193.09Z" fill="#FF7310"/>
<path d="M282.64 193.09H279.25V178.5H282.64V193.09Z" fill="#FF7310"/>
<path d="M318.559 193.09H315.169V185.7C315.169 184.64 315.209 183.55 315.289 182.43C314.811 183.18 314.276 183.892 313.689 184.56L308.859 191.3L308.339 191.39L303.499 184.68C302.96 183.965 302.472 183.213 302.039 182.43V182.43C302.129 183.35 302.169 184.43 302.169 185.68V193.09H298.779V178.5H302.589L306.819 184.62L308.729 187.38L310.649 184.59L314.859 178.5H318.609L318.559 193.09Z" fill="#FF7310"/>
<path d="M338 193.09H334.6V178.5H338V193.09Z" fill="#FF7310"/>
<path d="M362.75 193.09H359.36V181.09H352.68V178.5H369.45V181.11H362.75V193.09Z" fill="#FF7310"/>
<path d="M399.44 193.09H384.09V178.5H399.29V181.11H387.48V184.21H395.42V186.81H387.48V190.35H399.48L399.44 193.09Z" fill="#FF7310"/>
<path d="M427.73 193.09H415V178.5H427.71C428.719 178.387 429.736 178.635 430.58 179.2C430.882 179.585 431.105 180.027 431.236 180.499C431.366 180.971 431.402 181.464 431.34 181.95V189.64C431.402 190.127 431.367 190.622 431.236 191.096C431.106 191.57 430.883 192.013 430.58 192.4C429.738 192.952 428.731 193.196 427.73 193.09V193.09ZM427.97 189.93V181.53C427.97 181.35 427.97 181.23 427.86 181.19C427.737 181.125 427.598 181.098 427.46 181.11H418.46V190.35H427.46C427.6 190.365 427.74 190.334 427.86 190.26C427.908 190.22 427.946 190.169 427.97 190.112C427.995 190.055 428.005 189.992 428 189.93H427.97Z" fill="#FF7310"/>
<path d="M19.1596 40.87L1.84961 25.69V66.18H14.9996C16.1038 66.18 17.163 65.742 17.9447 64.9622C18.7264 64.1823 19.167 63.1242 19.1696 62.02V42.7C19.1696 42.08 19.1696 41.47 19.1596 40.87ZM64.9996 0.940002V24.34C64.9996 32.2 65.2196 39.0267 65.6596 44.82H65.2996C61.8796 41.54 58.1096 38.23 53.9896 34.89L15.3796 0.940002H1.84961V7.39001L18.8496 22.29L19.7196 23.09C23.8996 26.93 27.7196 30.26 31.1096 33.09L31.7996 33.66L68.9996 66.18H82.3796V0.940002H64.9996Z" fill="#FF7310"/>
<path d="M259 59.16L242.67 47.27L222.12 32.27L242.67 16.62L257.61 5.24002L263.3 0.900024H239.05L221.88 14.11L206.88 25.66V0.940033H189.25V39.62H206.84V39.54L224.23 52.43L242.79 66.19H268.63L259 59.16Z" fill="#FF7310"/>
<path d="M432.15 16.86V50.28C432.15 56.64 430.97 60.89 428.6 63C426.23 65.11 421.68 66.18 414.94 66.18H275.84V0.940002H340.84L334.84 11.79C334.477 12.437 333.949 12.9761 333.309 13.3521C332.67 13.728 331.942 13.9275 331.2 13.93H301.72C300.4 14 293.36 14.63 293.35 20.21C293.35 20.45 293.35 20.65 293.35 20.86V26.1H326.88L320.07 38.36L319.85 38.75H301.93C301.93 38.75 293.36 38.87 293.35 45.03C293.35 45.26 293.35 45.48 293.35 45.67V52.43H357.94H412.5C413.089 52.4838 413.68 52.3508 414.19 52.05C414.367 51.8661 414.5 51.6448 414.579 51.4024C414.659 51.1601 414.683 50.9029 414.65 50.65V15.92C414.65 15.17 414.5 14.69 414.19 14.47C413.667 14.2086 413.082 14.0978 412.5 14.15H383.5C381.95 14.25 375.64 14.95 373.22 19.4L363.86 36.23C363.499 36.8796 362.971 37.4212 362.332 37.7991C361.692 38.177 360.963 38.3775 360.22 38.38H344.83L357.93 14.8L358.29 14.15L365.63 1H383.45H414.93C421.67 1 426.223 2.07668 428.59 4.23001C430.957 6.38334 432.143 10.5933 432.15 16.86Z" fill="#FF7310"/>
<path d="M207.22 139.73V88.29H189.63V153.47H232.69C233.459 153.47 234.215 153.264 234.878 152.874C235.54 152.484 236.087 151.923 236.46 151.25L242.87 139.73H207.22Z" fill="#FF7310"/>
<path d="M73.8506 127.38V139.07C73.8506 144.74 72.6306 148.57 70.2006 150.52C67.7706 152.47 63.2006 153.52 56.5406 153.52H0.890625V139.92H54.2006C54.7708 139.97 55.3434 139.855 55.8506 139.59C56.0171 139.389 56.1396 139.155 56.2103 138.903C56.2809 138.652 56.298 138.389 56.2606 138.13V127.85C56.2931 127.601 56.2735 127.348 56.2029 127.107C56.1323 126.866 56.0124 126.642 55.8506 126.45C55.3597 126.14 54.7778 126.006 54.2006 126.07H18.2006C11.4606 126.07 6.89063 125.07 4.49063 123.07C2.09063 121.07 0.890625 117.267 0.890625 111.66V102.5C0.890625 97.01 2.12062 93.28 4.59062 91.27C7.06062 89.26 11.5906 88.27 18.2006 88.27H70.5806V96.68C70.578 97.8249 70.122 98.9222 69.3124 99.7318C68.5028 100.541 67.4055 100.997 66.2606 101H27.1306C25.6506 101 18.2006 101.32 18.2006 107.82V111.65C18.163 111.913 18.1857 112.181 18.2672 112.434C18.3486 112.687 18.4866 112.918 18.6706 113.11C19.1878 113.367 19.7652 113.477 20.3406 113.43H56.5406C63.2073 113.43 67.7606 114.397 70.2006 116.33C72.6406 118.263 73.8573 121.947 73.8506 127.38Z" fill="#FF7310"/>
<path d="M117.29 17.46L103.85 41.46L90.0498 66.13H104.91C106.191 66.1251 107.447 65.7717 108.543 65.1076C109.638 64.4434 110.533 63.4936 111.13 62.36L121.88 41.89H121.83L123.13 39.51L125.13 35.87L126.13 34.05L117.29 17.46Z" fill="#FF7310"/>
<path d="M206.84 52.43V66.19H185.94V66.18H173.59V66.19H164.69V66.16H161.85L154.5 52.45L147.16 38.77L145.58 35.8H145.51L140.3 26.12L135.48 17.18L135.45 17.19L126.67 0.910034H144.82L144.84 0.940033L151.91 13.95L172.87 52.45H185.94V52.43H206.84Z" fill="#FF7310"/>
<path d="M278.72 104.75L251.5 153.42H266.34C267.623 153.425 268.883 153.076 269.982 152.413C271.081 151.75 271.976 150.798 272.57 149.66L283.32 129.18H283.27L284.57 126.82L286.57 123.17L287.57 121.3L278.72 104.75Z" fill="#FF7310"/>
<path d="M355.75 153.42V153.47H368.75C368.971 153.468 369.191 153.452 369.41 153.42H355.75Z" fill="#FF7310"/>
<path d="M341.781 153.42H339.721V153.41H341.771L341.781 153.42Z" fill="#FF7310"/>
</svg>
