<svg width="1232" height="1024" viewBox="0 0 1232 1024" fill="none" xmlns="http://www.w3.org/2000/svg">
<path d="M473.632 500.982L365.585 392.935C358.576 385.926 347.211 385.926 340.201 392.935L232.154 500.982C225.144 507.992 225.144 519.357 232.154 526.367L340.201 634.414C347.211 641.424 358.576 641.424 365.585 634.414L473.632 526.367C480.642 519.357 480.642 507.992 473.632 500.982Z" fill="#01600C"/>
<path d="M1021.19 23.5839L913.139 -84.4633C906.129 -91.473 894.764 -91.473 887.755 -84.4633L779.707 23.5839C772.698 30.5936 772.698 41.9586 779.707 48.9683L887.755 157.015C894.764 164.025 906.129 164.025 913.139 157.015L1021.19 48.9683C1028.2 41.9586 1028.2 30.5936 1021.19 23.5839Z" fill="#01600C"/>
<path d="M641.252 649.196L543.961 551.905C536.952 544.895 525.587 544.895 518.577 551.905L421.286 649.196C414.276 656.205 414.276 667.57 421.286 674.58L518.577 771.871C525.587 778.881 536.952 778.881 543.961 771.871L641.252 674.58C648.262 667.57 648.262 656.205 641.252 649.196Z" fill="#01600C"/>
<path d="M1188.81 171.797L1091.51 74.5062C1084.51 67.4965 1073.14 67.4965 1066.13 74.5062L968.84 171.797C961.83 178.807 961.83 190.172 968.84 197.181L1066.13 294.472C1073.14 301.482 1084.51 301.482 1091.51 294.472L1188.81 197.181C1195.82 190.172 1195.82 178.807 1188.81 171.797Z" fill="#01600C"/>
<path d="M323.526 651.081L215.479 543.033C208.47 536.024 197.105 536.024 190.095 543.033L82.0477 651.081C75.038 658.09 75.0381 669.455 82.0478 676.465L190.095 784.512C197.105 791.522 208.47 791.522 215.479 784.512L323.526 676.465C330.536 669.455 330.536 658.09 323.526 651.081Z" fill="#01600C"/>
<path d="M871.08 173.682L763.033 65.6349C756.023 58.6252 744.658 58.6252 737.649 65.6349L629.601 173.682C622.592 180.692 622.592 192.057 629.601 199.066L737.649 307.114C744.658 314.123 756.023 314.123 763.033 307.114L871.08 199.066C878.09 192.057 878.09 180.692 871.08 173.682Z" fill="#01600C"/>
<path d="M472.478 800.045L364.43 691.997C357.421 684.988 346.056 684.988 339.046 691.998L230.999 800.045C223.989 807.054 223.989 818.419 230.999 825.429L339.046 933.476C346.056 940.486 357.421 940.486 364.43 933.476L472.478 825.429C479.487 818.419 479.487 807.054 472.478 800.045Z" fill="#01600C"/>
<path d="M1020.03 322.646L911.984 214.599C904.974 207.589 893.609 207.589 886.6 214.599L778.553 322.646C771.543 329.656 771.543 341.021 778.553 348.031L886.6 456.078C893.609 463.087 904.974 463.088 911.984 456.078L1020.03 348.031C1027.04 341.021 1027.04 329.656 1020.03 322.646Z" fill="#01600C"/>
<path d="M684 694.641C605.734 781.341 525.485 866.054 444.603 950.065C424.403 971.1 404.117 992.056 383.745 1012.93C379.862 1016.89 375.137 1019.93 369.92 1021.81C364.704 1023.7 359.131 1024.38 353.615 1023.8C348.054 1023.19 342.702 1021.34 337.952 1018.38C336.755 1017.64 335.644 1016.78 334.532 1015.96C333.421 1015.14 332.36 1014.06 331.505 1013.26L327.59 1009.42L296.331 978.827L172.136 855.559L49.0173 731.228L18.46 699.932L10.7651 692.073C4.84155 686.132 1.11989 678.345 0.215128 669.999C-0.689636 661.653 1.27667 653.248 5.78909 646.173C7.26411 643.87 8.98414 641.735 10.919 639.804L14.8178 635.969L22.6323 628.316L38.2957 613.044L69.7935 582.689C153.702 501.623 238.312 421.293 324.939 343C246.691 429.733 166.459 514.446 85.5424 598.458L55.2245 629.994L39.9715 645.676L32.3279 653.5L28.5147 657.404C27.8702 658.067 27.297 658.796 26.8047 659.578C25.9103 661.075 25.367 662.756 25.2159 664.494C25.0649 666.232 25.3099 667.982 25.9326 669.611C26.5629 671.264 27.57 672.748 28.8738 673.943L36.6884 681.596L67.9638 712.19L192.142 835.459L315.261 959.806L345.818 991.103L349.648 995.024L350.657 995.982C351.016 996.222 351.307 996.53 351.666 996.753C353.111 997.656 354.732 998.239 356.42 998.465C358.174 998.701 359.959 998.534 361.639 997.977C363.319 997.419 364.85 996.485 366.115 995.246C386.886 974.781 407.816 954.47 428.906 934.314C512.831 853.35 597.441 773.003 684 694.641Z" fill="#01600C"/>
<path d="M1232 217.125C1153.73 303.697 1073.49 388.286 992.603 472.173C972.403 493.178 952.117 514.103 931.745 534.948C927.862 538.905 923.137 541.937 917.92 543.816C912.704 545.695 907.131 546.375 901.615 545.804C896.054 545.193 890.702 543.341 885.952 540.385C884.755 539.649 883.644 538.795 882.532 537.974C881.421 537.153 880.36 536.076 879.505 535.273L875.59 531.444L844.331 500.894L720.136 377.806L597.017 253.658L566.46 222.408L558.765 214.561C552.842 208.628 549.12 200.853 548.215 192.519C547.31 184.186 549.277 175.793 553.789 168.728C555.264 166.429 556.984 164.296 558.919 162.368L562.818 158.539L570.632 150.897L586.296 135.648L617.794 105.337C701.702 24.3901 786.312 -55.8221 872.939 -134C794.691 -47.394 714.459 37.1947 633.542 121.082L603.225 152.572L587.972 168.232L580.328 176.045L576.515 179.942C575.87 180.604 575.297 181.332 574.805 182.113C573.91 183.608 573.367 185.287 573.216 187.022C573.065 188.758 573.31 190.505 573.933 192.131C574.563 193.782 575.57 195.263 576.874 196.457L584.688 204.098L615.964 234.648L740.142 357.736L863.261 481.901L893.818 513.151L897.648 517.066L898.657 518.024C899.016 518.263 899.307 518.571 899.666 518.793C901.111 519.694 902.732 520.277 904.42 520.502C906.174 520.739 907.959 520.572 909.639 520.015C911.319 519.458 912.85 518.526 914.115 517.289C934.886 496.854 955.816 476.573 976.906 456.445C1060.83 375.601 1145.44 295.371 1232 217.125Z" fill="#01600C"/>
<path d="M490.959 547C473.828 568.813 455.48 589.496 436.995 610.026C427.744 620.291 394.544 655.328 394.544 655.328L392.83 657.125C392.554 657.454 392.303 657.803 392.077 658.168C391.636 658.878 391.307 659.651 391.1 660.461C390.655 662.062 390.655 663.753 391.1 665.354C391.345 666.139 391.684 666.892 392.111 667.595C392.327 667.953 392.568 668.296 392.83 668.621L393.019 668.878L393.464 669.34L394.355 670.264L401.585 677.672L415.889 692.607C425.346 702.649 434.734 712.726 444.053 722.957C462.521 743.486 480.817 764.17 498 786C476.14 768.892 455.411 750.586 434.854 732.127C424.575 722.871 414.519 713.462 404.48 704.018L389.507 689.733L382.089 682.513L381.164 681.624L380.016 680.46C379.099 679.53 378.257 678.529 377.498 677.466C376.023 675.287 374.869 672.907 374.072 670.401C372.549 665.365 372.651 659.978 374.363 655.003C375.203 652.535 376.448 650.222 378.046 648.16C378.829 647.123 379.688 646.145 380.616 645.235L382.534 643.37L397.49 629.085C407.546 619.641 417.637 610.266 427.881 600.976C448.405 582.448 469.168 564.159 490.959 547Z" fill="#01600C"/>
<path d="M1037.96 70C1020.83 91.8128 1002.48 112.496 983.995 133.026C974.744 143.291 941.544 178.328 941.544 178.328L939.83 180.125C939.554 180.454 939.303 180.803 939.077 181.168C938.636 181.878 938.307 182.651 938.1 183.461C937.655 185.062 937.655 186.753 938.1 188.354C938.345 189.139 938.684 189.892 939.111 190.595C939.327 190.953 939.568 191.296 939.83 191.621L940.019 191.878L940.464 192.34L941.355 193.264L948.585 200.672L962.889 215.607C972.346 225.649 981.734 235.726 991.053 245.957C1009.52 266.486 1027.82 287.17 1045 309C1023.14 291.892 1002.41 273.586 981.854 255.127C971.575 245.871 961.519 236.462 951.48 227.018L936.507 212.733L929.089 205.513L928.164 204.624L927.016 203.46C926.099 202.53 925.257 201.529 924.498 200.466C923.023 198.287 921.869 195.907 921.072 193.401C919.549 188.365 919.651 182.978 921.363 178.003C922.203 175.535 923.448 173.222 925.046 171.16C925.829 170.123 926.688 169.145 927.616 168.235L929.534 166.37L944.49 152.085C954.546 142.641 964.637 133.266 974.881 123.976C995.405 105.448 1016.17 87.1594 1037.96 70Z" fill="#01600C"/>
</svg>
